<svg width="1200" height="800" viewBox="0 0 1200 800" fill="none" xmlns="http://www.w3.org/2000/svg">
  <rect width="1200" height="800" rx="40" fill="#F5EEDF"/>
  <ellipse cx="258" cy="188" rx="208" ry="126" fill="#E9DABD"/>
  <ellipse cx="906" cy="184" rx="220" ry="132" fill="#E5E8D6"/>
  <rect x="210" y="498" width="784" height="116" rx="58" fill="#D6C09C"/>
  <rect x="276" y="290" width="212" height="218" rx="36" fill="#FFF8EC"/>
  <rect x="520" y="252" width="160" height="256" rx="80" fill="#DEC79D"/>
  <rect x="732" y="318" width="188" height="190" rx="34" fill="#F4E9D2"/>
  <path d="M342 496C342 424 379 377 452 354" stroke="#B89763" stroke-width="20" stroke-linecap="round"/>
  <path d="M786 492C786 421 825 386 888 367" stroke="#C4A97F" stroke-width="20" stroke-linecap="round"/>
  <circle cx="600" cy="404" r="66" fill="#C8A96E"/>
  <path d="M557 396C581 370 625 368 648 394" stroke="#B68F54" stroke-width="16" stroke-linecap="round"/>
</svg>
